<svg width="399" height="159" viewBox="0 0 399 159" fill="none" xmlns="http://www.w3.org/2000/svg">
<rect x="58" y="42" width="282" height="99" fill="#F2D5BB"/>
<mask id="path-2-outside-1_133:2" maskUnits="userSpaceOnUse" x="0" y="0.388977" width="399" height="159" fill="black">
<rect fill="white" y="0.388977" width="399" height="159"/>
<path d="M34.299 46.426H32.024C32.024 50.4906 32.024 54.4036 32.024 58.165C32.0847 61.9263 32.1453 65.6573 32.206 69.358H34.117C37.6963 69.358 40.5173 68.4176 42.58 66.537C44.7033 64.5956 45.765 61.7443 45.765 57.983C45.765 53.8576 44.7943 50.9153 42.853 49.156C40.9723 47.336 38.121 46.426 34.299 46.426ZM34.117 21.31H32.206C32.1453 24.586 32.0847 27.8923 32.024 31.229C32.024 34.5656 32.024 37.9326 32.024 41.33H33.662C36.8773 41.33 39.2433 40.42 40.76 38.6C42.3373 36.7193 43.126 34.1106 43.126 30.774C43.126 27.7406 42.398 25.405 40.942 23.767C39.5467 22.129 37.2717 21.31 34.117 21.31ZM8 21.037V15.668H38.667C44.1877 15.668 48.5253 16.2746 51.68 17.488C54.8347 18.7013 57.0793 20.3393 58.414 22.402C59.7487 24.4646 60.416 26.8003 60.416 29.409C60.416 31.411 59.961 33.322 59.051 35.142C58.141 36.9013 56.5333 38.4483 54.228 39.783C51.9227 41.1176 48.6467 42.149 44.4 42.877C51.498 43.605 56.5637 45.2733 59.597 47.882C62.6303 50.4906 64.147 53.9183 64.147 58.165C64.147 59.985 63.7223 61.896 62.873 63.898C62.0843 65.8393 60.6283 67.6593 58.505 69.358C56.3817 71.0566 53.3483 72.4216 49.405 73.453C45.5223 74.4843 40.487 75 34.299 75H8V69.631L14.279 68.994C14.3397 65.2326 14.37 61.4713 14.37 57.71C14.37 53.9486 14.37 50.157 14.37 46.335V44.424C14.37 40.6626 14.37 36.871 14.37 33.049C14.37 29.227 14.3397 25.4353 14.279 21.674L8 21.037Z"/>
<path d="M70.1672 75V70.359L74.5352 69.358C74.5959 67.174 74.6262 64.8686 74.6262 62.442C74.6262 59.9546 74.6262 57.7706 74.6262 55.89V50.157C74.6262 48.4583 74.5959 47.0933 74.5352 46.062C74.5352 45.0306 74.5049 44.0903 74.4442 43.241C74.4442 42.331 74.4139 41.2693 74.3532 40.056L69.4392 39.237V35.506L89.5502 29.227L91.1882 30.228L91.9162 40.784C93.1295 36.8406 94.8586 33.9286 97.1032 32.048C99.4086 30.1673 101.653 29.227 103.837 29.227C106.082 29.227 107.963 29.8943 109.479 31.229C111.057 32.503 111.997 34.5353 112.3 37.326C112.179 39.7526 111.451 41.6636 110.116 43.059C108.782 44.3936 107.204 45.061 105.384 45.061C102.594 45.061 100.046 43.3926 97.7402 40.056L97.2852 39.419C96.1932 40.6323 95.1012 42.2096 94.0092 44.151C92.9779 46.0923 92.2802 48.0943 91.9162 50.157V55.89C91.9162 57.6493 91.9162 59.712 91.9162 62.078C91.9162 64.444 91.9465 66.6886 92.0072 68.812L99.1052 70.359V75H70.1672Z"/>
<path d="M149.895 76.456C147.043 76.456 144.738 75.91 142.979 74.818C141.28 73.6653 140.036 72.0576 139.248 69.995C137.488 71.9363 135.699 73.5136 133.879 74.727C132.119 75.8796 129.602 76.456 126.326 76.456C122.746 76.456 119.865 75.4246 117.681 73.362C115.557 71.2993 114.496 68.4176 114.496 64.717C114.496 62.351 115.011 60.258 116.043 58.438C117.135 56.5573 119.015 54.8586 121.685 53.342C124.415 51.7646 128.237 50.339 133.151 49.065C133.879 48.883 134.728 48.6706 135.699 48.428C136.669 48.1246 137.67 47.8516 138.702 47.609V44.333C138.702 40.4503 138.247 37.781 137.337 36.325C136.487 34.869 134.637 34.141 131.786 34.141C131.543 34.141 131.3 34.141 131.058 34.141C130.876 34.141 130.663 34.141 130.421 34.141V37.235C130.421 40.9356 129.662 43.5746 128.146 45.152C126.629 46.6686 124.9 47.427 122.959 47.427C119.258 47.427 116.953 45.789 116.043 42.513C116.043 38.5696 117.893 35.3846 121.594 32.958C125.355 30.4706 130.906 29.227 138.247 29.227C144.556 29.227 148.985 30.6223 151.533 33.413C154.141 36.143 155.446 40.6323 155.446 46.881V67.72C155.446 68.7513 155.961 69.267 156.993 69.267C157.357 69.267 157.721 69.1456 158.085 68.903C158.449 68.5996 158.904 68.0536 159.45 67.265L162.089 68.721C160.997 71.5116 159.48 73.5136 157.539 74.727C155.658 75.8796 153.11 76.456 149.895 76.456ZM130.148 61.896C130.148 64.1406 130.603 65.809 131.513 66.901C132.423 67.993 133.545 68.539 134.88 68.539C135.304 68.539 135.759 68.448 136.245 68.266C136.791 68.0233 137.61 67.538 138.702 66.81V51.886C137.792 52.1286 136.912 52.4623 136.063 52.887C134.789 53.4936 133.484 54.525 132.15 55.981C130.815 57.437 130.148 59.4086 130.148 61.896Z"/>
<path d="M166.187 75V70.359L170.373 69.358C170.434 67.174 170.464 64.8686 170.464 62.442C170.464 59.9546 170.464 57.7706 170.464 55.89V50.248C170.464 48.5493 170.434 47.1843 170.373 46.153C170.373 45.1216 170.343 44.151 170.282 43.241C170.282 42.331 170.252 41.2693 170.191 40.056L165.277 39.237V35.506L185.388 29.227L187.026 30.228L187.481 36.507C189.968 33.595 192.243 31.6536 194.306 30.683C196.429 29.7123 198.765 29.227 201.313 29.227C205.256 29.227 208.532 30.5313 211.141 33.14C213.75 35.688 215.054 39.4493 215.054 44.424V55.89C215.054 57.8313 215.054 60.0456 215.054 62.533C215.054 65.0203 215.084 67.356 215.145 69.54L218.967 70.359V75H193.76V70.359L197.673 69.449C197.734 67.265 197.764 64.9293 197.764 62.442C197.764 59.9546 197.764 57.7706 197.764 55.89V45.607C197.764 43.1803 197.43 41.4816 196.763 40.511C196.156 39.4796 195.125 38.964 193.669 38.964C191.97 38.964 189.999 39.7526 187.754 41.33V55.89C187.754 57.7706 187.754 59.985 187.754 62.533C187.754 65.0203 187.784 67.3863 187.845 69.631L191.303 70.359V75H166.187Z"/>
<path d="M243.639 53.069C243.639 57.6796 244.397 61.2286 245.914 63.716C247.43 66.2033 249.402 67.447 251.829 67.447C253.163 67.447 254.407 67.1133 255.56 66.446V38.782C254.589 38.236 253.467 37.963 252.193 37.963C249.705 37.963 247.643 39.237 246.005 41.785C244.427 44.2723 243.639 48.0336 243.639 53.069ZM256.834 76.092L256.015 71.178C252.557 74.6966 248.31 76.456 243.275 76.456C239.938 76.456 236.905 75.6067 234.175 73.908C231.445 72.1486 229.261 69.5703 227.623 66.173C226.045 62.715 225.257 58.4076 225.257 53.251C225.257 48.155 226.258 43.8173 228.26 40.238C230.262 36.6586 232.81 33.9286 235.904 32.048C239.058 30.1673 242.274 29.227 245.55 29.227C247.976 29.227 250.039 29.591 251.738 30.319C253.436 31.047 254.923 32.0783 256.197 33.413V18.489L250.373 17.579V13.484L271.667 9.38898L273.214 10.39L272.85 23.039V69.54L276.126 70.359V75L256.834 76.092Z"/>
<path d="M307.108 76.456C301.891 76.456 297.493 75.4246 293.913 73.362C290.334 71.2386 287.634 68.357 285.814 64.717C283.994 61.077 283.084 57.0123 283.084 52.523C283.084 47.973 284.116 43.969 286.178 40.511C288.241 36.9923 291.062 34.232 294.641 32.23C298.281 30.228 302.437 29.227 307.108 29.227C311.78 29.227 315.905 30.228 319.484 32.23C323.124 34.1713 325.976 36.9013 328.038 40.42C330.101 43.878 331.132 47.9123 331.132 52.523C331.132 57.1336 330.192 61.259 328.311 64.899C326.491 68.4783 323.792 71.2993 320.212 73.362C316.694 75.4246 312.326 76.456 307.108 76.456ZM307.108 71.451C309.11 71.451 310.566 69.995 311.476 67.083C312.447 64.171 312.932 59.4086 312.932 52.796C312.932 46.1833 312.447 41.4513 311.476 38.6C310.566 35.688 309.11 34.232 307.108 34.232C305.106 34.232 303.62 35.688 302.649 38.6C301.739 41.4513 301.284 46.1833 301.284 52.796C301.284 59.4086 301.739 64.171 302.649 67.083C303.62 69.995 305.106 71.451 307.108 71.451Z"/>
<path d="M337.982 75V70.359L342.168 69.358C342.228 67.174 342.259 64.8686 342.259 62.442C342.259 59.9546 342.259 57.7706 342.259 55.89V50.248C342.259 48.5493 342.228 47.1843 342.168 46.153C342.168 45.1216 342.137 44.151 342.077 43.241C342.077 42.331 342.046 41.2693 341.986 40.056L337.072 39.237V35.506L357.183 29.227L358.821 30.228L359.276 36.507C361.763 33.595 364.038 31.6536 366.101 30.683C368.224 29.7123 370.56 29.227 373.108 29.227C377.051 29.227 380.327 30.5313 382.936 33.14C385.544 35.688 386.849 39.4493 386.849 44.424V55.89C386.849 57.8313 386.849 60.0456 386.849 62.533C386.849 65.0203 386.879 67.356 386.94 69.54L390.762 70.359V75H365.555V70.359L369.468 69.449C369.528 67.265 369.559 64.9293 369.559 62.442C369.559 59.9546 369.559 57.7706 369.559 55.89V45.607C369.559 43.1803 369.225 41.4816 368.558 40.511C367.951 39.4796 366.92 38.964 365.464 38.964C363.765 38.964 361.793 39.7526 359.549 41.33V55.89C359.549 57.7706 359.549 59.985 359.549 62.533C359.549 65.0203 359.579 67.3863 359.64 69.631L363.098 70.359V75H337.982Z"/>
<path d="M79.7951 95.31H79.0671C79.0064 99.0106 78.9458 102.742 78.8851 106.503C78.8851 110.264 78.8851 114.056 78.8851 117.878V121.154H80.1591C83.5564 121.154 86.1651 119.91 87.9851 117.423C89.8658 114.875 90.8061 111.569 90.8061 107.504C90.8061 103.379 89.8051 100.315 87.8031 98.313C85.8618 96.311 83.1924 95.31 79.7951 95.31ZM54.4971 95.037V89.668H79.3401C86.1954 89.668 91.6554 90.396 95.7201 91.852C99.7848 93.308 102.727 95.401 104.547 98.131C106.367 100.8 107.277 103.955 107.277 107.595C107.277 111.053 106.458 114.238 104.82 117.15C103.182 120.001 100.391 122.307 96.4481 124.066C92.5654 125.765 87.2571 126.614 80.5231 126.614H78.8851C78.8851 128.98 78.8851 131.558 78.8851 134.349C78.8851 137.079 78.9154 139.9 78.9761 142.812L87.0751 143.631V149H54.4971V143.631L60.7761 142.994C60.8368 139.354 60.8671 135.684 60.8671 131.983C60.8671 128.222 60.8671 124.491 60.8671 120.79V117.878C60.8671 114.177 60.8671 110.477 60.8671 106.776C60.8671 103.075 60.8368 99.3746 60.7761 95.674L54.4971 95.037Z"/>
<path d="M135.536 150.456C130.319 150.456 125.92 149.425 122.341 147.362C118.762 145.239 116.062 142.357 114.242 138.717C112.422 135.077 111.512 131.012 111.512 126.523C111.512 121.973 112.543 117.969 114.606 114.511C116.669 110.992 119.49 108.232 123.069 106.23C126.709 104.228 130.865 103.227 135.536 103.227C140.207 103.227 144.333 104.228 147.912 106.23C151.552 108.171 154.403 110.901 156.466 114.42C158.529 117.878 159.56 121.912 159.56 126.523C159.56 131.134 158.62 135.259 156.739 138.899C154.919 142.478 152.219 145.299 148.64 147.362C145.121 149.425 140.753 150.456 135.536 150.456ZM135.536 145.451C137.538 145.451 138.994 143.995 139.904 141.083C140.875 138.171 141.36 133.409 141.36 126.796C141.36 120.183 140.875 115.451 139.904 112.6C138.994 109.688 137.538 108.232 135.536 108.232C133.534 108.232 132.048 109.688 131.077 112.6C130.167 115.451 129.712 120.183 129.712 126.796C129.712 133.409 130.167 138.171 131.077 141.083C132.048 143.995 133.534 145.451 135.536 145.451Z"/>
<path d="M219.211 108.96V104.683H235.773V108.96L230.495 109.597L216.39 149H208.2L198.281 120.972L188.544 149H180.354L166.067 109.506L162.518 108.96V104.683H187.816V108.96L183.175 109.597L189.454 131.073L196.461 109.597L191.729 108.96V104.683H214.843V108.96L210.657 109.597L216.936 130.254L223.761 109.597L219.211 108.96Z"/>
<path d="M261.574 108.141C260.179 108.141 258.996 109.172 258.025 111.235C257.054 113.298 256.508 117.15 256.387 122.792H260.664C262.848 122.792 264.304 122.367 265.032 121.518C265.821 120.608 266.215 119 266.215 116.695C266.215 113.54 265.73 111.326 264.759 110.052C263.849 108.778 262.787 108.141 261.574 108.141ZM261.847 150.456C257.297 150.456 253.232 149.516 249.653 147.635C246.134 145.754 243.344 143.055 241.281 139.536C239.218 135.957 238.187 131.68 238.187 126.705C238.187 122.762 238.885 119.334 240.28 116.422C241.675 113.51 243.556 111.083 245.922 109.142C248.288 107.14 250.927 105.654 253.839 104.683C256.751 103.712 259.693 103.227 262.666 103.227C267.034 103.227 270.644 104.137 273.495 105.957C276.407 107.716 278.591 110.113 280.047 113.146C281.503 116.119 282.231 119.455 282.231 123.156C282.231 124.127 282.201 124.976 282.14 125.704C282.079 126.371 281.958 127.13 281.776 127.979H256.478C256.963 132.408 258.268 135.623 260.391 137.625C262.575 139.627 265.002 140.628 267.671 140.628C269.976 140.628 271.948 140.234 273.586 139.445C275.285 138.596 276.771 137.564 278.045 136.351L281.594 139.809C279.653 143.51 276.983 146.209 273.586 147.908C270.249 149.607 266.336 150.456 261.847 150.456Z"/>
<path d="M287.494 149V144.359L291.589 143.449C291.65 141.144 291.68 138.869 291.68 136.624C291.741 134.379 291.771 132.135 291.771 129.89V92.489L286.857 91.579V87.484L307.878 83.389L309.425 84.39L309.061 97.039V129.89C309.061 132.135 309.061 134.41 309.061 136.715C309.122 138.96 309.182 141.235 309.243 143.54L313.338 144.359V149H287.494Z"/>
<path d="M320.617 149V144.359L324.712 143.449C324.772 141.144 324.803 138.869 324.803 136.624C324.863 134.379 324.894 132.135 324.894 129.89V92.489L319.98 91.579V87.484L341.001 83.389L342.548 84.39L342.184 97.039V129.89C342.184 132.135 342.184 134.41 342.184 136.715C342.244 138.96 342.305 141.235 342.366 143.54L346.461 144.359V149H320.617Z"/>
</mask>
<path d="M34.299 46.426H32.024C32.024 50.4906 32.024 54.4036 32.024 58.165C32.0847 61.9263 32.1453 65.6573 32.206 69.358H34.117C37.6963 69.358 40.5173 68.4176 42.58 66.537C44.7033 64.5956 45.765 61.7443 45.765 57.983C45.765 53.8576 44.7943 50.9153 42.853 49.156C40.9723 47.336 38.121 46.426 34.299 46.426ZM34.117 21.31H32.206C32.1453 24.586 32.0847 27.8923 32.024 31.229C32.024 34.5656 32.024 37.9326 32.024 41.33H33.662C36.8773 41.33 39.2433 40.42 40.76 38.6C42.3373 36.7193 43.126 34.1106 43.126 30.774C43.126 27.7406 42.398 25.405 40.942 23.767C39.5467 22.129 37.2717 21.31 34.117 21.31ZM8 21.037V15.668H38.667C44.1877 15.668 48.5253 16.2746 51.68 17.488C54.8347 18.7013 57.0793 20.3393 58.414 22.402C59.7487 24.4646 60.416 26.8003 60.416 29.409C60.416 31.411 59.961 33.322 59.051 35.142C58.141 36.9013 56.5333 38.4483 54.228 39.783C51.9227 41.1176 48.6467 42.149 44.4 42.877C51.498 43.605 56.5637 45.2733 59.597 47.882C62.6303 50.4906 64.147 53.9183 64.147 58.165C64.147 59.985 63.7223 61.896 62.873 63.898C62.0843 65.8393 60.6283 67.6593 58.505 69.358C56.3817 71.0566 53.3483 72.4216 49.405 73.453C45.5223 74.4843 40.487 75 34.299 75H8V69.631L14.279 68.994C14.3397 65.2326 14.37 61.4713 14.37 57.71C14.37 53.9486 14.37 50.157 14.37 46.335V44.424C14.37 40.6626 14.37 36.871 14.37 33.049C14.37 29.227 14.3397 25.4353 14.279 21.674L8 21.037Z" fill="black"/>
<path d="M70.1672 75V70.359L74.5352 69.358C74.5959 67.174 74.6262 64.8686 74.6262 62.442C74.6262 59.9546 74.6262 57.7706 74.6262 55.89V50.157C74.6262 48.4583 74.5959 47.0933 74.5352 46.062C74.5352 45.0306 74.5049 44.0903 74.4442 43.241C74.4442 42.331 74.4139 41.2693 74.3532 40.056L69.4392 39.237V35.506L89.5502 29.227L91.1882 30.228L91.9162 40.784C93.1295 36.8406 94.8586 33.9286 97.1032 32.048C99.4086 30.1673 101.653 29.227 103.837 29.227C106.082 29.227 107.963 29.8943 109.479 31.229C111.057 32.503 111.997 34.5353 112.3 37.326C112.179 39.7526 111.451 41.6636 110.116 43.059C108.782 44.3936 107.204 45.061 105.384 45.061C102.594 45.061 100.046 43.3926 97.7402 40.056L97.2852 39.419C96.1932 40.6323 95.1012 42.2096 94.0092 44.151C92.9779 46.0923 92.2802 48.0943 91.9162 50.157V55.89C91.9162 57.6493 91.9162 59.712 91.9162 62.078C91.9162 64.444 91.9465 66.6886 92.0072 68.812L99.1052 70.359V75H70.1672Z" fill="black"/>
<path d="M149.895 76.456C147.043 76.456 144.738 75.91 142.979 74.818C141.28 73.6653 140.036 72.0576 139.248 69.995C137.488 71.9363 135.699 73.5136 133.879 74.727C132.119 75.8796 129.602 76.456 126.326 76.456C122.746 76.456 119.865 75.4246 117.681 73.362C115.557 71.2993 114.496 68.4176 114.496 64.717C114.496 62.351 115.011 60.258 116.043 58.438C117.135 56.5573 119.015 54.8586 121.685 53.342C124.415 51.7646 128.237 50.339 133.151 49.065C133.879 48.883 134.728 48.6706 135.699 48.428C136.669 48.1246 137.67 47.8516 138.702 47.609V44.333C138.702 40.4503 138.247 37.781 137.337 36.325C136.487 34.869 134.637 34.141 131.786 34.141C131.543 34.141 131.3 34.141 131.058 34.141C130.876 34.141 130.663 34.141 130.421 34.141V37.235C130.421 40.9356 129.662 43.5746 128.146 45.152C126.629 46.6686 124.9 47.427 122.959 47.427C119.258 47.427 116.953 45.789 116.043 42.513C116.043 38.5696 117.893 35.3846 121.594 32.958C125.355 30.4706 130.906 29.227 138.247 29.227C144.556 29.227 148.985 30.6223 151.533 33.413C154.141 36.143 155.446 40.6323 155.446 46.881V67.72C155.446 68.7513 155.961 69.267 156.993 69.267C157.357 69.267 157.721 69.1456 158.085 68.903C158.449 68.5996 158.904 68.0536 159.45 67.265L162.089 68.721C160.997 71.5116 159.48 73.5136 157.539 74.727C155.658 75.8796 153.11 76.456 149.895 76.456ZM130.148 61.896C130.148 64.1406 130.603 65.809 131.513 66.901C132.423 67.993 133.545 68.539 134.88 68.539C135.304 68.539 135.759 68.448 136.245 68.266C136.791 68.0233 137.61 67.538 138.702 66.81V51.886C137.792 52.1286 136.912 52.4623 136.063 52.887C134.789 53.4936 133.484 54.525 132.15 55.981C130.815 57.437 130.148 59.4086 130.148 61.896Z" fill="black"/>
<path d="M166.187 75V70.359L170.373 69.358C170.434 67.174 170.464 64.8686 170.464 62.442C170.464 59.9546 170.464 57.7706 170.464 55.89V50.248C170.464 48.5493 170.434 47.1843 170.373 46.153C170.373 45.1216 170.343 44.151 170.282 43.241C170.282 42.331 170.252 41.2693 170.191 40.056L165.277 39.237V35.506L185.388 29.227L187.026 30.228L187.481 36.507C189.968 33.595 192.243 31.6536 194.306 30.683C196.429 29.7123 198.765 29.227 201.313 29.227C205.256 29.227 208.532 30.5313 211.141 33.14C213.75 35.688 215.054 39.4493 215.054 44.424V55.89C215.054 57.8313 215.054 60.0456 215.054 62.533C215.054 65.0203 215.084 67.356 215.145 69.54L218.967 70.359V75H193.76V70.359L197.673 69.449C197.734 67.265 197.764 64.9293 197.764 62.442C197.764 59.9546 197.764 57.7706 197.764 55.89V45.607C197.764 43.1803 197.43 41.4816 196.763 40.511C196.156 39.4796 195.125 38.964 193.669 38.964C191.97 38.964 189.999 39.7526 187.754 41.33V55.89C187.754 57.7706 187.754 59.985 187.754 62.533C187.754 65.0203 187.784 67.3863 187.845 69.631L191.303 70.359V75H166.187Z" fill="black"/>
<path d="M243.639 53.069C243.639 57.6796 244.397 61.2286 245.914 63.716C247.43 66.2033 249.402 67.447 251.829 67.447C253.163 67.447 254.407 67.1133 255.56 66.446V38.782C254.589 38.236 253.467 37.963 252.193 37.963C249.705 37.963 247.643 39.237 246.005 41.785C244.427 44.2723 243.639 48.0336 243.639 53.069ZM256.834 76.092L256.015 71.178C252.557 74.6966 248.31 76.456 243.275 76.456C239.938 76.456 236.905 75.6067 234.175 73.908C231.445 72.1486 229.261 69.5703 227.623 66.173C226.045 62.715 225.257 58.4076 225.257 53.251C225.257 48.155 226.258 43.8173 228.26 40.238C230.262 36.6586 232.81 33.9286 235.904 32.048C239.058 30.1673 242.274 29.227 245.55 29.227C247.976 29.227 250.039 29.591 251.738 30.319C253.436 31.047 254.923 32.0783 256.197 33.413V18.489L250.373 17.579V13.484L271.667 9.38898L273.214 10.39L272.85 23.039V69.54L276.126 70.359V75L256.834 76.092Z" fill="black"/>
<path d="M307.108 76.456C301.891 76.456 297.493 75.4246 293.913 73.362C290.334 71.2386 287.634 68.357 285.814 64.717C283.994 61.077 283.084 57.0123 283.084 52.523C283.084 47.973 284.116 43.969 286.178 40.511C288.241 36.9923 291.062 34.232 294.641 32.23C298.281 30.228 302.437 29.227 307.108 29.227C311.78 29.227 315.905 30.228 319.484 32.23C323.124 34.1713 325.976 36.9013 328.038 40.42C330.101 43.878 331.132 47.9123 331.132 52.523C331.132 57.1336 330.192 61.259 328.311 64.899C326.491 68.4783 323.792 71.2993 320.212 73.362C316.694 75.4246 312.326 76.456 307.108 76.456ZM307.108 71.451C309.11 71.451 310.566 69.995 311.476 67.083C312.447 64.171 312.932 59.4086 312.932 52.796C312.932 46.1833 312.447 41.4513 311.476 38.6C310.566 35.688 309.11 34.232 307.108 34.232C305.106 34.232 303.62 35.688 302.649 38.6C301.739 41.4513 301.284 46.1833 301.284 52.796C301.284 59.4086 301.739 64.171 302.649 67.083C303.62 69.995 305.106 71.451 307.108 71.451Z" fill="black"/>
<path d="M337.982 75V70.359L342.168 69.358C342.228 67.174 342.259 64.8686 342.259 62.442C342.259 59.9546 342.259 57.7706 342.259 55.89V50.248C342.259 48.5493 342.228 47.1843 342.168 46.153C342.168 45.1216 342.137 44.151 342.077 43.241C342.077 42.331 342.046 41.2693 341.986 40.056L337.072 39.237V35.506L357.183 29.227L358.821 30.228L359.276 36.507C361.763 33.595 364.038 31.6536 366.101 30.683C368.224 29.7123 370.56 29.227 373.108 29.227C377.051 29.227 380.327 30.5313 382.936 33.14C385.544 35.688 386.849 39.4493 386.849 44.424V55.89C386.849 57.8313 386.849 60.0456 386.849 62.533C386.849 65.0203 386.879 67.356 386.94 69.54L390.762 70.359V75H365.555V70.359L369.468 69.449C369.528 67.265 369.559 64.9293 369.559 62.442C369.559 59.9546 369.559 57.7706 369.559 55.89V45.607C369.559 43.1803 369.225 41.4816 368.558 40.511C367.951 39.4796 366.92 38.964 365.464 38.964C363.765 38.964 361.793 39.7526 359.549 41.33V55.89C359.549 57.7706 359.549 59.985 359.549 62.533C359.549 65.0203 359.579 67.3863 359.64 69.631L363.098 70.359V75H337.982Z" fill="black"/>
<path d="M79.7951 95.31H79.0671C79.0064 99.0106 78.9458 102.742 78.8851 106.503C78.8851 110.264 78.8851 114.056 78.8851 117.878V121.154H80.1591C83.5564 121.154 86.1651 119.91 87.9851 117.423C89.8658 114.875 90.8061 111.569 90.8061 107.504C90.8061 103.379 89.8051 100.315 87.8031 98.313C85.8618 96.311 83.1924 95.31 79.7951 95.31ZM54.4971 95.037V89.668H79.3401C86.1954 89.668 91.6554 90.396 95.7201 91.852C99.7848 93.308 102.727 95.401 104.547 98.131C106.367 100.8 107.277 103.955 107.277 107.595C107.277 111.053 106.458 114.238 104.82 117.15C103.182 120.001 100.391 122.307 96.4481 124.066C92.5654 125.765 87.2571 126.614 80.5231 126.614H78.8851C78.8851 128.98 78.8851 131.558 78.8851 134.349C78.8851 137.079 78.9154 139.9 78.9761 142.812L87.0751 143.631V149H54.4971V143.631L60.7761 142.994C60.8368 139.354 60.8671 135.684 60.8671 131.983C60.8671 128.222 60.8671 124.491 60.8671 120.79V117.878C60.8671 114.177 60.8671 110.477 60.8671 106.776C60.8671 103.075 60.8368 99.3746 60.7761 95.674L54.4971 95.037Z" fill="black"/>
<path d="M135.536 150.456C130.319 150.456 125.92 149.425 122.341 147.362C118.762 145.239 116.062 142.357 114.242 138.717C112.422 135.077 111.512 131.012 111.512 126.523C111.512 121.973 112.543 117.969 114.606 114.511C116.669 110.992 119.49 108.232 123.069 106.23C126.709 104.228 130.865 103.227 135.536 103.227C140.207 103.227 144.333 104.228 147.912 106.23C151.552 108.171 154.403 110.901 156.466 114.42C158.529 117.878 159.56 121.912 159.56 126.523C159.56 131.134 158.62 135.259 156.739 138.899C154.919 142.478 152.219 145.299 148.64 147.362C145.121 149.425 140.753 150.456 135.536 150.456ZM135.536 145.451C137.538 145.451 138.994 143.995 139.904 141.083C140.875 138.171 141.36 133.409 141.36 126.796C141.36 120.183 140.875 115.451 139.904 112.6C138.994 109.688 137.538 108.232 135.536 108.232C133.534 108.232 132.048 109.688 131.077 112.6C130.167 115.451 129.712 120.183 129.712 126.796C129.712 133.409 130.167 138.171 131.077 141.083C132.048 143.995 133.534 145.451 135.536 145.451Z" fill="black"/>
<path d="M219.211 108.96V104.683H235.773V108.96L230.495 109.597L216.39 149H208.2L198.281 120.972L188.544 149H180.354L166.067 109.506L162.518 108.96V104.683H187.816V108.96L183.175 109.597L189.454 131.073L196.461 109.597L191.729 108.96V104.683H214.843V108.96L210.657 109.597L216.936 130.254L223.761 109.597L219.211 108.96Z" fill="black"/>
<path d="M261.574 108.141C260.179 108.141 258.996 109.172 258.025 111.235C257.054 113.298 256.508 117.15 256.387 122.792H260.664C262.848 122.792 264.304 122.367 265.032 121.518C265.821 120.608 266.215 119 266.215 116.695C266.215 113.54 265.73 111.326 264.759 110.052C263.849 108.778 262.787 108.141 261.574 108.141ZM261.847 150.456C257.297 150.456 253.232 149.516 249.653 147.635C246.134 145.754 243.344 143.055 241.281 139.536C239.218 135.957 238.187 131.68 238.187 126.705C238.187 122.762 238.885 119.334 240.28 116.422C241.675 113.51 243.556 111.083 245.922 109.142C248.288 107.14 250.927 105.654 253.839 104.683C256.751 103.712 259.693 103.227 262.666 103.227C267.034 103.227 270.644 104.137 273.495 105.957C276.407 107.716 278.591 110.113 280.047 113.146C281.503 116.119 282.231 119.455 282.231 123.156C282.231 124.127 282.201 124.976 282.14 125.704C282.079 126.371 281.958 127.13 281.776 127.979H256.478C256.963 132.408 258.268 135.623 260.391 137.625C262.575 139.627 265.002 140.628 267.671 140.628C269.976 140.628 271.948 140.234 273.586 139.445C275.285 138.596 276.771 137.564 278.045 136.351L281.594 139.809C279.653 143.51 276.983 146.209 273.586 147.908C270.249 149.607 266.336 150.456 261.847 150.456Z" fill="black"/>
<path d="M287.494 149V144.359L291.589 143.449C291.65 141.144 291.68 138.869 291.68 136.624C291.741 134.379 291.771 132.135 291.771 129.89V92.489L286.857 91.579V87.484L307.878 83.389L309.425 84.39L309.061 97.039V129.89C309.061 132.135 309.061 134.41 309.061 136.715C309.122 138.96 309.182 141.235 309.243 143.54L313.338 144.359V149H287.494Z" fill="black"/>
<path d="M320.617 149V144.359L324.712 143.449C324.772 141.144 324.803 138.869 324.803 136.624C324.863 134.379 324.894 132.135 324.894 129.89V92.489L319.98 91.579V87.484L341.001 83.389L342.548 84.39L342.184 97.039V129.89C342.184 132.135 342.184 134.41 342.184 136.715C342.244 138.96 342.305 141.235 342.366 143.54L346.461 144.359V149H320.617Z" fill="black"/>
<path d="M34.299 46.426H32.024C32.024 50.4906 32.024 54.4036 32.024 58.165C32.0847 61.9263 32.1453 65.6573 32.206 69.358H34.117C37.6963 69.358 40.5173 68.4176 42.58 66.537C44.7033 64.5956 45.765 61.7443 45.765 57.983C45.765 53.8576 44.7943 50.9153 42.853 49.156C40.9723 47.336 38.121 46.426 34.299 46.426ZM34.117 21.31H32.206C32.1453 24.586 32.0847 27.8923 32.024 31.229C32.024 34.5656 32.024 37.9326 32.024 41.33H33.662C36.8773 41.33 39.2433 40.42 40.76 38.6C42.3373 36.7193 43.126 34.1106 43.126 30.774C43.126 27.7406 42.398 25.405 40.942 23.767C39.5467 22.129 37.2717 21.31 34.117 21.31ZM8 21.037V15.668H38.667C44.1877 15.668 48.5253 16.2746 51.68 17.488C54.8347 18.7013 57.0793 20.3393 58.414 22.402C59.7487 24.4646 60.416 26.8003 60.416 29.409C60.416 31.411 59.961 33.322 59.051 35.142C58.141 36.9013 56.5333 38.4483 54.228 39.783C51.9227 41.1176 48.6467 42.149 44.4 42.877C51.498 43.605 56.5637 45.2733 59.597 47.882C62.6303 50.4906 64.147 53.9183 64.147 58.165C64.147 59.985 63.7223 61.896 62.873 63.898C62.0843 65.8393 60.6283 67.6593 58.505 69.358C56.3817 71.0566 53.3483 72.4216 49.405 73.453C45.5223 74.4843 40.487 75 34.299 75H8V69.631L14.279 68.994C14.3397 65.2326 14.37 61.4713 14.37 57.71C14.37 53.9486 14.37 50.157 14.37 46.335V44.424C14.37 40.6626 14.37 36.871 14.37 33.049C14.37 29.227 14.3397 25.4353 14.279 21.674L8 21.037Z" stroke="#F2D5BB" stroke-width="16" mask="url(#path-2-outside-1_133:2)"/>
<path d="M70.1672 75V70.359L74.5352 69.358C74.5959 67.174 74.6262 64.8686 74.6262 62.442C74.6262 59.9546 74.6262 57.7706 74.6262 55.89V50.157C74.6262 48.4583 74.5959 47.0933 74.5352 46.062C74.5352 45.0306 74.5049 44.0903 74.4442 43.241C74.4442 42.331 74.4139 41.2693 74.3532 40.056L69.4392 39.237V35.506L89.5502 29.227L91.1882 30.228L91.9162 40.784C93.1295 36.8406 94.8586 33.9286 97.1032 32.048C99.4086 30.1673 101.653 29.227 103.837 29.227C106.082 29.227 107.963 29.8943 109.479 31.229C111.057 32.503 111.997 34.5353 112.3 37.326C112.179 39.7526 111.451 41.6636 110.116 43.059C108.782 44.3936 107.204 45.061 105.384 45.061C102.594 45.061 100.046 43.3926 97.7402 40.056L97.2852 39.419C96.1932 40.6323 95.1012 42.2096 94.0092 44.151C92.9779 46.0923 92.2802 48.0943 91.9162 50.157V55.89C91.9162 57.6493 91.9162 59.712 91.9162 62.078C91.9162 64.444 91.9465 66.6886 92.0072 68.812L99.1052 70.359V75H70.1672Z" stroke="#F2D5BB" stroke-width="16" mask="url(#path-2-outside-1_133:2)"/>
<path d="M149.895 76.456C147.043 76.456 144.738 75.91 142.979 74.818C141.28 73.6653 140.036 72.0576 139.248 69.995C137.488 71.9363 135.699 73.5136 133.879 74.727C132.119 75.8796 129.602 76.456 126.326 76.456C122.746 76.456 119.865 75.4246 117.681 73.362C115.557 71.2993 114.496 68.4176 114.496 64.717C114.496 62.351 115.011 60.258 116.043 58.438C117.135 56.5573 119.015 54.8586 121.685 53.342C124.415 51.7646 128.237 50.339 133.151 49.065C133.879 48.883 134.728 48.6706 135.699 48.428C136.669 48.1246 137.67 47.8516 138.702 47.609V44.333C138.702 40.4503 138.247 37.781 137.337 36.325C136.487 34.869 134.637 34.141 131.786 34.141C131.543 34.141 131.3 34.141 131.058 34.141C130.876 34.141 130.663 34.141 130.421 34.141V37.235C130.421 40.9356 129.662 43.5746 128.146 45.152C126.629 46.6686 124.9 47.427 122.959 47.427C119.258 47.427 116.953 45.789 116.043 42.513C116.043 38.5696 117.893 35.3846 121.594 32.958C125.355 30.4706 130.906 29.227 138.247 29.227C144.556 29.227 148.985 30.6223 151.533 33.413C154.141 36.143 155.446 40.6323 155.446 46.881V67.72C155.446 68.7513 155.961 69.267 156.993 69.267C157.357 69.267 157.721 69.1456 158.085 68.903C158.449 68.5996 158.904 68.0536 159.45 67.265L162.089 68.721C160.997 71.5116 159.48 73.5136 157.539 74.727C155.658 75.8796 153.11 76.456 149.895 76.456ZM130.148 61.896C130.148 64.1406 130.603 65.809 131.513 66.901C132.423 67.993 133.545 68.539 134.88 68.539C135.304 68.539 135.759 68.448 136.245 68.266C136.791 68.0233 137.61 67.538 138.702 66.81V51.886C137.792 52.1286 136.912 52.4623 136.063 52.887C134.789 53.4936 133.484 54.525 132.15 55.981C130.815 57.437 130.148 59.4086 130.148 61.896Z" stroke="#F2D5BB" stroke-width="16" mask="url(#path-2-outside-1_133:2)"/>
<path d="M166.187 75V70.359L170.373 69.358C170.434 67.174 170.464 64.8686 170.464 62.442C170.464 59.9546 170.464 57.7706 170.464 55.89V50.248C170.464 48.5493 170.434 47.1843 170.373 46.153C170.373 45.1216 170.343 44.151 170.282 43.241C170.282 42.331 170.252 41.2693 170.191 40.056L165.277 39.237V35.506L185.388 29.227L187.026 30.228L187.481 36.507C189.968 33.595 192.243 31.6536 194.306 30.683C196.429 29.7123 198.765 29.227 201.313 29.227C205.256 29.227 208.532 30.5313 211.141 33.14C213.75 35.688 215.054 39.4493 215.054 44.424V55.89C215.054 57.8313 215.054 60.0456 215.054 62.533C215.054 65.0203 215.084 67.356 215.145 69.54L218.967 70.359V75H193.76V70.359L197.673 69.449C197.734 67.265 197.764 64.9293 197.764 62.442C197.764 59.9546 197.764 57.7706 197.764 55.89V45.607C197.764 43.1803 197.43 41.4816 196.763 40.511C196.156 39.4796 195.125 38.964 193.669 38.964C191.97 38.964 189.999 39.7526 187.754 41.33V55.89C187.754 57.7706 187.754 59.985 187.754 62.533C187.754 65.0203 187.784 67.3863 187.845 69.631L191.303 70.359V75H166.187Z" stroke="#F2D5BB" stroke-width="16" mask="url(#path-2-outside-1_133:2)"/>
<path d="M243.639 53.069C243.639 57.6796 244.397 61.2286 245.914 63.716C247.43 66.2033 249.402 67.447 251.829 67.447C253.163 67.447 254.407 67.1133 255.56 66.446V38.782C254.589 38.236 253.467 37.963 252.193 37.963C249.705 37.963 247.643 39.237 246.005 41.785C244.427 44.2723 243.639 48.0336 243.639 53.069ZM256.834 76.092L256.015 71.178C252.557 74.6966 248.31 76.456 243.275 76.456C239.938 76.456 236.905 75.6067 234.175 73.908C231.445 72.1486 229.261 69.5703 227.623 66.173C226.045 62.715 225.257 58.4076 225.257 53.251C225.257 48.155 226.258 43.8173 228.26 40.238C230.262 36.6586 232.81 33.9286 235.904 32.048C239.058 30.1673 242.274 29.227 245.55 29.227C247.976 29.227 250.039 29.591 251.738 30.319C253.436 31.047 254.923 32.0783 256.197 33.413V18.489L250.373 17.579V13.484L271.667 9.38898L273.214 10.39L272.85 23.039V69.54L276.126 70.359V75L256.834 76.092Z" stroke="#F2D5BB" stroke-width="16" mask="url(#path-2-outside-1_133:2)"/>
<path d="M307.108 76.456C301.891 76.456 297.493 75.4246 293.913 73.362C290.334 71.2386 287.634 68.357 285.814 64.717C283.994 61.077 283.084 57.0123 283.084 52.523C283.084 47.973 284.116 43.969 286.178 40.511C288.241 36.9923 291.062 34.232 294.641 32.23C298.281 30.228 302.437 29.227 307.108 29.227C311.78 29.227 315.905 30.228 319.484 32.23C323.124 34.1713 325.976 36.9013 328.038 40.42C330.101 43.878 331.132 47.9123 331.132 52.523C331.132 57.1336 330.192 61.259 328.311 64.899C326.491 68.4783 323.792 71.2993 320.212 73.362C316.694 75.4246 312.326 76.456 307.108 76.456ZM307.108 71.451C309.11 71.451 310.566 69.995 311.476 67.083C312.447 64.171 312.932 59.4086 312.932 52.796C312.932 46.1833 312.447 41.4513 311.476 38.6C310.566 35.688 309.11 34.232 307.108 34.232C305.106 34.232 303.62 35.688 302.649 38.6C301.739 41.4513 301.284 46.1833 301.284 52.796C301.284 59.4086 301.739 64.171 302.649 67.083C303.62 69.995 305.106 71.451 307.108 71.451Z" stroke="#F2D5BB" stroke-width="16" mask="url(#path-2-outside-1_133:2)"/>
<path d="M337.982 75V70.359L342.168 69.358C342.228 67.174 342.259 64.8686 342.259 62.442C342.259 59.9546 342.259 57.7706 342.259 55.89V50.248C342.259 48.5493 342.228 47.1843 342.168 46.153C342.168 45.1216 342.137 44.151 342.077 43.241C342.077 42.331 342.046 41.2693 341.986 40.056L337.072 39.237V35.506L357.183 29.227L358.821 30.228L359.276 36.507C361.763 33.595 364.038 31.6536 366.101 30.683C368.224 29.7123 370.56 29.227 373.108 29.227C377.051 29.227 380.327 30.5313 382.936 33.14C385.544 35.688 386.849 39.4493 386.849 44.424V55.89C386.849 57.8313 386.849 60.0456 386.849 62.533C386.849 65.0203 386.879 67.356 386.94 69.54L390.762 70.359V75H365.555V70.359L369.468 69.449C369.528 67.265 369.559 64.9293 369.559 62.442C369.559 59.9546 369.559 57.7706 369.559 55.89V45.607C369.559 43.1803 369.225 41.4816 368.558 40.511C367.951 39.4796 366.92 38.964 365.464 38.964C363.765 38.964 361.793 39.7526 359.549 41.33V55.89C359.549 57.7706 359.549 59.985 359.549 62.533C359.549 65.0203 359.579 67.3863 359.64 69.631L363.098 70.359V75H337.982Z" stroke="#F2D5BB" stroke-width="16" mask="url(#path-2-outside-1_133:2)"/>
<path d="M79.7951 95.31H79.0671C79.0064 99.0106 78.9458 102.742 78.8851 106.503C78.8851 110.264 78.8851 114.056 78.8851 117.878V121.154H80.1591C83.5564 121.154 86.1651 119.91 87.9851 117.423C89.8658 114.875 90.8061 111.569 90.8061 107.504C90.8061 103.379 89.8051 100.315 87.8031 98.313C85.8618 96.311 83.1924 95.31 79.7951 95.31ZM54.4971 95.037V89.668H79.3401C86.1954 89.668 91.6554 90.396 95.7201 91.852C99.7848 93.308 102.727 95.401 104.547 98.131C106.367 100.8 107.277 103.955 107.277 107.595C107.277 111.053 106.458 114.238 104.82 117.15C103.182 120.001 100.391 122.307 96.4481 124.066C92.5654 125.765 87.2571 126.614 80.5231 126.614H78.8851C78.8851 128.98 78.8851 131.558 78.8851 134.349C78.8851 137.079 78.9154 139.9 78.9761 142.812L87.0751 143.631V149H54.4971V143.631L60.7761 142.994C60.8368 139.354 60.8671 135.684 60.8671 131.983C60.8671 128.222 60.8671 124.491 60.8671 120.79V117.878C60.8671 114.177 60.8671 110.477 60.8671 106.776C60.8671 103.075 60.8368 99.3746 60.7761 95.674L54.4971 95.037Z" stroke="#F2D5BB" stroke-width="16" mask="url(#path-2-outside-1_133:2)"/>
<path d="M135.536 150.456C130.319 150.456 125.92 149.425 122.341 147.362C118.762 145.239 116.062 142.357 114.242 138.717C112.422 135.077 111.512 131.012 111.512 126.523C111.512 121.973 112.543 117.969 114.606 114.511C116.669 110.992 119.49 108.232 123.069 106.23C126.709 104.228 130.865 103.227 135.536 103.227C140.207 103.227 144.333 104.228 147.912 106.23C151.552 108.171 154.403 110.901 156.466 114.42C158.529 117.878 159.56 121.912 159.56 126.523C159.56 131.134 158.62 135.259 156.739 138.899C154.919 142.478 152.219 145.299 148.64 147.362C145.121 149.425 140.753 150.456 135.536 150.456ZM135.536 145.451C137.538 145.451 138.994 143.995 139.904 141.083C140.875 138.171 141.36 133.409 141.36 126.796C141.36 120.183 140.875 115.451 139.904 112.6C138.994 109.688 137.538 108.232 135.536 108.232C133.534 108.232 132.048 109.688 131.077 112.6C130.167 115.451 129.712 120.183 129.712 126.796C129.712 133.409 130.167 138.171 131.077 141.083C132.048 143.995 133.534 145.451 135.536 145.451Z" stroke="#F2D5BB" stroke-width="16" mask="url(#path-2-outside-1_133:2)"/>
<path d="M219.211 108.96V104.683H235.773V108.96L230.495 109.597L216.39 149H208.2L198.281 120.972L188.544 149H180.354L166.067 109.506L162.518 108.96V104.683H187.816V108.96L183.175 109.597L189.454 131.073L196.461 109.597L191.729 108.96V104.683H214.843V108.96L210.657 109.597L216.936 130.254L223.761 109.597L219.211 108.96Z" stroke="#F2D5BB" stroke-width="16" mask="url(#path-2-outside-1_133:2)"/>
<path d="M261.574 108.141C260.179 108.141 258.996 109.172 258.025 111.235C257.054 113.298 256.508 117.15 256.387 122.792H260.664C262.848 122.792 264.304 122.367 265.032 121.518C265.821 120.608 266.215 119 266.215 116.695C266.215 113.54 265.73 111.326 264.759 110.052C263.849 108.778 262.787 108.141 261.574 108.141ZM261.847 150.456C257.297 150.456 253.232 149.516 249.653 147.635C246.134 145.754 243.344 143.055 241.281 139.536C239.218 135.957 238.187 131.68 238.187 126.705C238.187 122.762 238.885 119.334 240.28 116.422C241.675 113.51 243.556 111.083 245.922 109.142C248.288 107.14 250.927 105.654 253.839 104.683C256.751 103.712 259.693 103.227 262.666 103.227C267.034 103.227 270.644 104.137 273.495 105.957C276.407 107.716 278.591 110.113 280.047 113.146C281.503 116.119 282.231 119.455 282.231 123.156C282.231 124.127 282.201 124.976 282.14 125.704C282.079 126.371 281.958 127.13 281.776 127.979H256.478C256.963 132.408 258.268 135.623 260.391 137.625C262.575 139.627 265.002 140.628 267.671 140.628C269.976 140.628 271.948 140.234 273.586 139.445C275.285 138.596 276.771 137.564 278.045 136.351L281.594 139.809C279.653 143.51 276.983 146.209 273.586 147.908C270.249 149.607 266.336 150.456 261.847 150.456Z" stroke="#F2D5BB" stroke-width="16" mask="url(#path-2-outside-1_133:2)"/>
<path d="M287.494 149V144.359L291.589 143.449C291.65 141.144 291.68 138.869 291.68 136.624C291.741 134.379 291.771 132.135 291.771 129.89V92.489L286.857 91.579V87.484L307.878 83.389L309.425 84.39L309.061 97.039V129.89C309.061 132.135 309.061 134.41 309.061 136.715C309.122 138.96 309.182 141.235 309.243 143.54L313.338 144.359V149H287.494Z" stroke="#F2D5BB" stroke-width="16" mask="url(#path-2-outside-1_133:2)"/>
<path d="M320.617 149V144.359L324.712 143.449C324.772 141.144 324.803 138.869 324.803 136.624C324.863 134.379 324.894 132.135 324.894 129.89V92.489L319.98 91.579V87.484L341.001 83.389L342.548 84.39L342.184 97.039V129.89C342.184 132.135 342.184 134.41 342.184 136.715C342.244 138.96 342.305 141.235 342.366 143.54L346.461 144.359V149H320.617Z" stroke="#F2D5BB" stroke-width="16" mask="url(#path-2-outside-1_133:2)"/>
</svg>
