<svg width="55" height="55" viewBox="0 0 55 55" fill="none" xmlns="http://www.w3.org/2000/svg">
<circle cx="27.5" cy="27.5" r="27.5" fill="#141A26"/>
<path d="M21.9375 34.7499C21.7883 34.7499 21.6452 34.6906 21.5398 34.5852C21.4343 34.4797 21.375 34.3366 21.375 34.1874V21.8124C21.375 21.7147 21.4005 21.6186 21.449 21.5337C21.4974 21.4488 21.5671 21.378 21.6513 21.3283C21.7354 21.2785 21.8311 21.2516 21.9288 21.2501C22.0265 21.2486 22.123 21.2725 22.2086 21.3197L33.4586 27.5072C33.5468 27.5557 33.6204 27.627 33.6716 27.7137C33.7228 27.8004 33.7498 27.8992 33.7498 27.9999C33.7498 28.1006 33.7228 28.1994 33.6716 28.2861C33.6204 28.3728 33.5468 28.4441 33.4586 28.4927L22.2086 34.6802C22.1256 34.7259 22.0323 34.7499 21.9375 34.7499Z" fill="#F2D5BB"/>
</svg>
