<svg width="95" height="95" viewBox="0 0 95 95" fill="none" xmlns="http://www.w3.org/2000/svg">
<circle cx="47.5" cy="47.5" r="47.5" fill="#BF0000"/>
<path d="M39 60C38.7348 60 38.4804 59.8947 38.2929 59.7071C38.1054 59.5196 38 59.2652 38 59V37C38 36.8262 38.0453 36.6555 38.1315 36.5046C38.2176 36.3536 38.3416 36.2277 38.4912 36.1393C38.6407 36.0509 38.8108 36.003 38.9845 36.0003C39.1583 35.9976 39.3297 36.0403 39.482 36.124L59.482 47.124C59.6388 47.2103 59.7695 47.3372 59.8606 47.4912C59.9517 47.6453 59.9997 47.821 59.9997 48C59.9997 48.179 59.9517 48.3547 59.8606 48.5088C59.7695 48.6629 59.6388 48.7897 59.482 48.876L39.482 59.876C39.3344 59.9573 39.1685 60 39 60Z" fill="#F2D5BB"/>
</svg>
